<svg width="102" height="65" viewBox="0 0 102 65" fill="none" xmlns="http://www.w3.org/2000/svg">
<path fill-rule="evenodd" clip-rule="evenodd" d="M36.1155 27.8801C41.1655 17.4035 44.4347 7.18265 45.9295 0.772705L47.6754 1.17679C46.1944 7.52717 43.0218 17.4868 38.1477 27.7815C50.8371 27.3578 67.0499 30.3478 87.3182 38.9618L86.6149 40.6042C65.988 31.8378 49.7591 29.001 37.2692 29.6022C37.0894 29.968 36.9075 30.334 36.7234 30.7C31.0449 41.9895 23.2864 53.4035 13.3992 60.5361C10.2708 62.793 7.47797 63.6657 5.18466 63.2724C2.82853 62.8684 1.24763 61.1757 0.507394 58.8944C-0.946216 54.4147 0.686852 47.4109 5.87992 41.2435C11.49 34.5808 21.2566 28.8304 36.1155 27.8801ZM35.2036 29.7353C21.3337 30.8599 12.3501 36.3378 7.25315 42.391C2.30047 48.273 1.01338 54.6486 2.21289 58.3452C2.79922 60.1521 3.93819 61.2468 5.48873 61.5127C7.10208 61.7894 9.40268 61.2146 12.348 59.0899C21.8966 52.2015 29.4967 41.0817 35.1209 29.9C35.1485 29.8451 35.1761 29.7902 35.2036 29.7353Z" fill="url(#paint0_linear)"/>
<path fill-rule="evenodd" clip-rule="evenodd" d="M37.0977 27.9098C36.8699 27.9228 36.6433 27.9369 36.4179 27.9521C36.1881 27.9676 35.9596 27.9843 35.7324 28.0022C-5.24273 31.2276 -4.93843 72.5663 13.4399 59.1468C23.186 52.0303 30.8676 40.5506 36.4954 29.1462C36.5974 28.9394 36.6988 28.7327 36.7994 28.526C36.8995 28.3206 36.9989 28.1152 37.0977 27.9098ZM35.1138 29.2554C15.7469 31.0122 6.23212 41.5021 3.55133 49.8843C2.1309 54.3256 2.68764 57.8764 4.20801 59.5081C4.92599 60.2786 5.92861 60.7132 7.29228 60.6053C8.69832 60.4941 10.5256 59.7972 12.7438 58.1775C22.0863 51.3558 29.5554 40.3665 35.1138 29.2554Z" fill="url(#paint1_linear)"/>
<path d="M58.4589 64.7975C57.7053 64.7975 57.025 64.6541 56.418 64.3673C55.8109 64.0699 55.2929 63.7088 54.8638 63.2839L55.3975 62.5988C56.2348 63.4698 57.2186 63.9053 58.349 63.9053C59.1235 63.9053 59.7724 63.7141 60.2957 63.3317C60.8294 62.9493 61.0963 62.397 61.0963 61.6747C61.0963 61.1967 60.9707 60.7825 60.7195 60.432C60.4684 60.0814 60.1439 59.8159 59.7462 59.6353C59.3485 59.4441 58.9298 59.3379 58.4903 59.3167H56.7791V58.4882H58.4746C58.799 58.4882 59.1182 58.4032 59.4322 58.2333C59.7567 58.0527 60.0183 57.8137 60.2172 57.5163C60.4265 57.2189 60.5312 56.9003 60.5312 56.5604C60.5312 56.0718 60.3166 55.6894 59.8875 55.4132C59.4688 55.1264 58.9769 54.983 58.4118 54.983C58.035 54.983 57.6425 55.0521 57.2343 55.1902C56.8366 55.3176 56.4912 55.5035 56.1982 55.7478L55.79 55.0308C56.2401 54.7016 56.6692 54.4626 57.0773 54.3139C57.4855 54.1652 57.9251 54.0908 58.3961 54.0908C58.9612 54.0908 59.4793 54.1917 59.9503 54.3935C60.4213 54.5847 60.7928 54.8662 61.0649 55.238C61.337 55.5991 61.4731 56.024 61.4731 56.5126C61.4731 57.0649 61.3056 57.5694 60.9707 58.0262C60.6463 58.4723 60.2329 58.7537 59.7305 58.8706C60.4108 58.9874 60.9655 59.3167 61.3946 59.8584C61.8237 60.4001 62.0383 61.0533 62.0383 61.8181C62.0383 62.4448 61.876 62.9865 61.5516 63.4432C61.2271 63.8893 60.7928 64.2292 60.2486 64.4629C59.7043 64.6859 59.1078 64.7975 58.4589 64.7975Z" fill="#A22814"/>
<path d="M67.4102 64.909C66.688 64.909 66.0391 64.7231 65.4635 64.3514C64.8879 63.969 64.4378 63.4432 64.1134 62.774C63.7889 62.1049 63.6267 61.3507 63.6267 60.5116C63.6267 59.5982 63.8256 58.7272 64.2233 57.8987C64.6314 57.0596 65.2018 56.332 65.9345 55.7159C66.4996 55.238 67.1171 54.8715 67.787 54.6166C68.4673 54.3617 69.1633 54.2342 69.875 54.2342L69.8593 55.1105C69.2418 55.0999 68.6347 55.2061 68.0382 55.4292C67.4521 55.6522 66.9131 55.9762 66.4211 56.401C65.9816 56.794 65.6048 57.2561 65.2908 57.7872C64.9768 58.3076 64.778 58.8175 64.6942 59.3167C64.9454 58.8387 65.3274 58.451 65.8403 58.1536C66.3636 57.8456 66.9078 57.6916 67.473 57.6916C68.1114 57.6916 68.708 57.8562 69.2627 58.1855C69.8174 58.5148 70.257 58.9609 70.5814 59.5238C70.9059 60.0761 71.0681 60.6763 71.0681 61.3242C71.0681 61.9827 70.9059 62.5882 70.5814 63.1405C70.257 63.6822 69.8122 64.1124 69.247 64.431C68.6923 64.7497 68.08 64.909 67.4102 64.909ZM67.4259 64.0168C67.9178 64.0168 68.3678 63.8946 68.776 63.6503C69.1947 63.406 69.5243 63.0768 69.7651 62.6625C70.0058 62.2483 70.1261 61.7969 70.1261 61.3083C70.1261 60.8197 70.0058 60.3682 69.7651 59.954C69.5243 59.5397 69.1999 59.2105 68.7917 58.9662C68.3835 58.7113 67.9387 58.5838 67.4573 58.5838C66.9444 58.5838 66.4787 58.7059 66.0601 58.9502C65.6414 59.1945 65.3117 59.5291 65.071 59.954C64.8408 60.3682 64.7256 60.8303 64.7256 61.3401C64.7256 61.8287 64.846 62.2801 65.0867 62.6944C65.3379 63.098 65.6676 63.422 66.0758 63.6663C66.4944 63.8999 66.9445 64.0168 67.4259 64.0168Z" fill="#A22814"/>
<path d="M76.882 64.7656C75.9924 64.7656 75.2284 64.5213 74.59 64.0327C73.9515 63.5441 73.4649 62.8962 73.1299 62.0889C72.795 61.2817 72.6276 60.4107 72.6276 59.476C72.6276 58.5413 72.795 57.6703 73.1299 56.8631C73.4649 56.0558 73.9515 55.4132 74.59 54.9352C75.2389 54.4466 76.0029 54.2023 76.882 54.2023C77.7612 54.2023 78.52 54.452 79.1584 54.9512C79.8073 55.4398 80.2992 56.0877 80.6341 56.8949C80.969 57.7022 81.1365 58.5785 81.1365 59.5238C81.1365 60.4691 80.9638 61.3401 80.6184 62.1367C80.2835 62.9334 79.7916 63.5707 79.1427 64.0486C78.5043 64.5266 77.7507 64.7656 76.882 64.7656ZM76.9134 63.8734C77.6251 63.8734 78.2269 63.6663 78.7188 63.252C79.2107 62.8272 79.5771 62.2801 79.8178 61.611C80.069 60.9312 80.1946 60.2142 80.1946 59.4601C80.1946 58.6847 80.0637 57.9677 79.8021 57.3092C79.5509 56.64 79.1741 56.1036 78.6717 55.7C78.1798 55.2964 77.5885 55.0946 76.8977 55.0946C76.1965 55.0946 75.5947 55.3017 75.0923 55.7159C74.59 56.1196 74.208 56.656 73.9463 57.3251C73.6951 57.9943 73.5695 58.7113 73.5695 59.476C73.5695 60.2408 73.7003 60.963 73.962 61.6428C74.2237 62.312 74.6057 62.8537 75.108 63.268C75.6104 63.6716 76.2122 63.8734 76.9134 63.8734Z" fill="#A22814"/>
<path d="M31.7998 44.7569H30.1362V44.3504H33.89V44.7569H32.2264V49.3166H31.7998V44.7569Z" fill="#A22814"/>
<path d="M34.2163 47.6539C34.2211 47.9927 34.3016 48.3025 34.458 48.5832C34.6144 48.864 34.9273 49.0043 35.3965 49.0043C35.6003 49.0043 35.7875 48.9777 35.9581 48.9245C36.1335 48.8712 36.323 48.7841 36.5268 48.6631L36.7117 48.968C36.5221 49.0987 36.3112 49.2028 36.079 49.2802C35.8467 49.3577 35.6097 49.3964 35.368 49.3964C34.8704 49.3964 34.4817 49.2343 34.2021 48.91C33.9272 48.5808 33.7898 48.15 33.7898 47.6176C33.7898 47.2739 33.8514 46.952 33.9746 46.6519C34.0978 46.347 34.2803 46.1001 34.522 45.9114C34.7637 45.7226 35.0481 45.6282 35.3751 45.6282C35.65 45.6282 35.8989 45.696 36.1216 45.8315C36.3491 45.9622 36.5268 46.1437 36.6548 46.376C36.7875 46.6035 36.8539 46.8577 36.8539 47.1384C36.8539 47.2158 36.8515 47.286 36.8468 47.3489C36.842 47.407 36.8373 47.4579 36.8326 47.5014L36.8183 47.6539H34.2163ZM36.4202 47.2618C36.4249 47.2279 36.4273 47.1795 36.4273 47.1166C36.4273 46.9133 36.3799 46.7294 36.2851 46.5648C36.1903 46.3954 36.0624 46.2623 35.9012 46.1655C35.7401 46.0687 35.5624 46.0203 35.368 46.0203C35.0789 46.0203 34.8301 46.1292 34.6215 46.347C34.4177 46.56 34.2898 46.8649 34.2376 47.2618H36.4202Z" fill="#A22814"/>
<path d="M39.1816 49.3674C38.665 49.3674 38.2574 49.2052 37.9588 48.8809C37.6649 48.5566 37.518 48.1137 37.518 47.5522C37.518 47.165 37.5891 46.8238 37.7313 46.5285C37.8735 46.2284 38.0749 45.9985 38.3356 45.8388C38.5962 45.6742 38.8972 45.5919 39.2384 45.5919C39.428 45.5919 39.6034 45.6282 39.7645 45.7008C39.9304 45.7686 40.101 45.8799 40.2764 46.0348L39.992 46.2962C39.883 46.1848 39.7693 46.105 39.6508 46.0566C39.537 46.0082 39.3996 45.984 39.2384 45.984C38.8451 45.984 38.5299 46.1292 38.2929 46.4196C38.0607 46.7052 37.9445 47.09 37.9445 47.574C37.9445 48.0193 38.0536 48.3654 38.2716 48.6123C38.4943 48.8543 38.8095 48.9753 39.2171 48.9753C39.5631 48.9753 39.9375 48.8616 40.3404 48.6341L40.5252 48.939C40.3309 49.0745 40.1153 49.181 39.8783 49.2585C39.646 49.3311 39.4138 49.3674 39.1816 49.3674Z" fill="#A22814"/>
<path d="M41.6512 44.0454V46.2163C41.7981 46.0082 41.9687 45.8557 42.163 45.7589C42.3574 45.6621 42.5825 45.6137 42.8384 45.6137C43.2223 45.6137 43.5091 45.7178 43.6987 45.9259C43.893 46.1292 43.9901 46.4196 43.9901 46.7971V49.3166H43.5636V46.877C43.5636 46.6108 43.4996 46.4027 43.3716 46.2526C43.2437 46.0977 43.0517 46.0203 42.7958 46.0203C42.5683 46.0203 42.3645 46.0808 42.1844 46.2018C42.0043 46.3228 41.8265 46.5043 41.6512 46.7463V49.3166H41.2246V44.0454H41.6512Z" fill="#A22814"/>
<path d="M44.9431 46.2962C44.9146 46.209 44.8672 46.1268 44.8009 46.0493C44.7345 45.967 44.6682 45.9065 44.6018 45.8678L44.8009 45.5629C45.0616 45.742 45.2464 46.0058 45.3554 46.3543L46.109 48.6849L47.0688 45.6863H47.4669L48.4266 48.6849L49.3864 45.6863H49.7845L48.6257 49.3093H48.2276L47.2678 46.3107L46.3081 49.3093H45.9028L44.9431 46.2962Z" fill="#A22814"/>
<path d="M52.8265 49.3746C52.7364 49.302 52.663 49.2222 52.6061 49.135C52.554 49.0479 52.5042 48.9342 52.4568 48.7938C52.362 48.9826 52.2198 49.1302 52.0302 49.2367C51.8454 49.3383 51.6203 49.3892 51.3549 49.3892C50.9804 49.3892 50.6795 49.2875 50.452 49.0842C50.2292 48.8809 50.1178 48.605 50.1178 48.2565C50.1178 47.8886 50.2434 47.6031 50.4946 47.3998C50.7506 47.1965 51.1108 47.0948 51.5752 47.0948H52.3999V46.8335C52.3999 46.543 52.3383 46.3276 52.2151 46.1873C52.0919 46.0469 51.9023 45.9767 51.6463 45.9767C51.4568 45.9767 51.2624 46.013 51.0634 46.0856C50.8643 46.1534 50.6866 46.2478 50.5302 46.3688L50.3382 46.0493C50.5136 45.8993 50.715 45.7855 50.9425 45.7081C51.1747 45.6258 51.4117 45.5846 51.6534 45.5846C52.0373 45.5846 52.3288 45.6863 52.5279 45.8896C52.727 46.088 52.8265 46.376 52.8265 46.7536V48.271C52.8265 48.6437 52.9189 48.9317 53.1037 49.135L52.8265 49.3746ZM51.362 48.9971C51.6795 48.9971 51.9307 48.9075 52.1155 48.7284C52.3051 48.5494 52.3999 48.317 52.3999 48.0314V47.4869H51.6748C51.2719 47.4869 50.9828 47.5474 50.8074 47.6684C50.6321 47.7846 50.5444 47.9782 50.5444 48.2493C50.5444 48.4913 50.6155 48.6776 50.7577 48.8083C50.8999 48.9342 51.1013 48.9971 51.362 48.9971Z" fill="#A22814"/>
<path d="M56.8512 49.3166H56.382L55.2089 47.6829C55.1568 47.62 55.0833 47.574 54.9886 47.545C54.8938 47.5159 54.7942 47.5014 54.69 47.5014H54.3771V49.3166H53.9506V44.0454H54.3771V47.1094H54.6331C54.799 47.1094 54.9293 47.1045 55.0241 47.0948C55.1236 47.0852 55.2113 47.0609 55.2871 47.0222C55.4483 46.9399 55.5881 46.8068 55.7066 46.6229C55.8298 46.4341 55.9222 46.2453 55.9839 46.0566C56.0502 45.863 56.0834 45.7299 56.0834 45.6572H56.4744C56.4697 45.8218 56.4104 46.0324 56.2967 46.2889C56.1877 46.5406 56.055 46.7705 55.8985 46.9787C55.7421 47.1868 55.5976 47.3126 55.4649 47.3562L56.8512 49.3166Z" fill="#A22814"/>
<path d="M57.6202 47.6539C57.6249 47.9927 57.7055 48.3025 57.8619 48.5832C58.0183 48.864 58.3311 49.0043 58.8003 49.0043C59.0041 49.0043 59.1913 48.9777 59.362 48.9245C59.5373 48.8712 59.7269 48.7841 59.9307 48.6631L60.1155 48.968C59.926 49.0987 59.715 49.2028 59.4828 49.2802C59.2506 49.3577 59.0136 49.3964 58.7719 49.3964C58.2742 49.3964 57.8856 49.2343 57.6059 48.91C57.3311 48.5808 57.1936 48.15 57.1936 47.6176C57.1936 47.2739 57.2552 46.952 57.3785 46.6519C57.5017 46.347 57.6842 46.1001 57.9259 45.9114C58.1676 45.7226 58.452 45.6282 58.779 45.6282C59.0539 45.6282 59.3027 45.696 59.5255 45.8315C59.753 45.9622 59.9307 46.1437 60.0587 46.376C60.1914 46.6035 60.2577 46.8577 60.2577 47.1384C60.2577 47.2158 60.2554 47.286 60.2506 47.3489C60.2459 47.407 60.2411 47.4579 60.2364 47.5014L60.2222 47.6539H57.6202ZM59.8241 47.2618C59.8288 47.2279 59.8312 47.1795 59.8312 47.1166C59.8312 46.9133 59.7838 46.7294 59.689 46.5648C59.5942 46.3954 59.4662 46.2623 59.3051 46.1655C59.1439 46.0687 58.9662 46.0203 58.7719 46.0203C58.4828 46.0203 58.2339 46.1292 58.0254 46.347C57.8216 46.56 57.6936 46.8649 57.6415 47.2618H59.8241Z" fill="#A22814"/>
<path d="M62.3667 49.4037C62.0254 49.4037 61.7174 49.3383 61.4425 49.2076C61.1676 49.0721 60.933 48.9075 60.7387 48.7139L60.9804 48.4017C61.3595 48.7986 61.8051 48.9971 62.3169 48.9971C62.6677 48.9971 62.9615 48.91 63.1985 48.7357C63.4402 48.5615 63.5611 48.3098 63.5611 47.9806C63.5611 47.7628 63.5042 47.574 63.3904 47.4143C63.2767 47.2546 63.1298 47.1336 62.9497 47.0513C62.7696 46.9641 62.58 46.9157 62.3809 46.9061H61.606V46.5285H62.3738C62.5207 46.5285 62.6653 46.4898 62.8075 46.4123C62.9544 46.3301 63.0729 46.2211 63.1629 46.0856C63.2577 45.9501 63.3051 45.8049 63.3051 45.65C63.3051 45.4273 63.208 45.2531 63.0136 45.1272C62.8241 44.9965 62.6013 44.9312 62.3454 44.9312C62.1747 44.9312 61.997 44.9627 61.8122 45.0256C61.6321 45.0837 61.4757 45.1684 61.343 45.2797L61.1581 44.953C61.3619 44.8029 61.5562 44.694 61.7411 44.6263C61.9259 44.5585 62.125 44.5246 62.3383 44.5246C62.5942 44.5246 62.8288 44.5706 63.0421 44.6626C63.2554 44.7497 63.4236 44.878 63.5468 45.0474C63.6701 45.2119 63.7317 45.4055 63.7317 45.6282C63.7317 45.8799 63.6559 46.1098 63.5042 46.318C63.3573 46.5212 63.1701 46.6495 62.9426 46.7028C63.2506 46.756 63.5018 46.9061 63.6961 47.1529C63.8905 47.3998 63.9876 47.6975 63.9876 48.046C63.9876 48.3315 63.9142 48.5784 63.7672 48.7865C63.6203 48.9898 63.4236 49.1447 63.1772 49.2512C62.9307 49.3529 62.6605 49.4037 62.3667 49.4037Z" fill="#A22814"/>
<path d="M66.4203 49.4545C66.0933 49.4545 65.7994 49.3698 65.5387 49.2004C65.2781 49.0261 65.0743 48.7865 64.9273 48.4816C64.7804 48.1766 64.7069 47.833 64.7069 47.4506C64.7069 47.0343 64.797 46.6374 64.9771 46.2599C65.1619 45.8775 65.4202 45.5459 65.752 45.2652C66.008 45.0474 66.2876 44.8804 66.5909 44.7642C66.899 44.648 67.2142 44.5899 67.5365 44.5899L67.5293 44.9893C67.2497 44.9844 66.9748 45.0328 66.7047 45.1345C66.4393 45.2361 66.1952 45.3838 65.9724 45.5774C65.7733 45.7565 65.6027 45.967 65.4605 46.209C65.3183 46.4462 65.2283 46.6786 65.1904 46.9061C65.3041 46.6882 65.4771 46.5116 65.7094 46.376C65.9463 46.2357 66.1928 46.1655 66.4487 46.1655C66.7378 46.1655 67.008 46.2405 67.2592 46.3906C67.5104 46.5406 67.7095 46.7439 67.8564 47.0004C68.0033 47.2521 68.0768 47.5256 68.0768 47.8209C68.0768 48.121 68.0033 48.3969 67.8564 48.6486C67.7095 48.8954 67.508 49.0915 67.2521 49.2367C67.0009 49.3819 66.7236 49.4545 66.4203 49.4545ZM66.4274 49.0479C66.6502 49.0479 66.854 48.9922 67.0388 48.8809C67.2284 48.7696 67.3777 48.6195 67.4867 48.4308C67.5957 48.242 67.6502 48.0363 67.6502 47.8136C67.6502 47.591 67.5957 47.3853 67.4867 47.1965C67.3777 47.0077 67.2308 46.8577 67.0459 46.7463C66.8611 46.6302 66.6596 46.5721 66.4416 46.5721C66.2094 46.5721 65.9985 46.6277 65.8089 46.7391C65.6193 46.8504 65.47 47.0029 65.361 47.1965C65.2567 47.3853 65.2046 47.5958 65.2046 47.8281C65.2046 48.0508 65.2591 48.2565 65.3681 48.4453C65.4819 48.6292 65.6312 48.7769 65.816 48.8882C66.0056 48.9947 66.2094 49.0479 66.4274 49.0479Z" fill="#A22814"/>
<path d="M70.7096 49.3892C70.3067 49.3892 69.9608 49.2778 69.6716 49.0552C69.3825 48.8325 69.1621 48.5373 69.0105 48.1694C68.8588 47.8015 68.783 47.4046 68.783 46.9787C68.783 46.5527 68.8588 46.1558 69.0105 45.7879C69.1621 45.4201 69.3825 45.1272 69.6716 44.9094C69.9655 44.6868 70.3115 44.5754 70.7096 44.5754C71.1077 44.5754 71.4513 44.6892 71.7405 44.9167C72.0343 45.1393 72.2571 45.4346 72.4087 45.8025C72.5604 46.1703 72.6362 46.5697 72.6362 47.0004C72.6362 47.4312 72.558 47.8281 72.4016 48.1912C72.25 48.5542 72.0272 48.8446 71.7333 49.0624C71.4442 49.2802 71.103 49.3892 70.7096 49.3892ZM70.7238 48.9826C71.0461 48.9826 71.3186 48.8882 71.5414 48.6994C71.7642 48.5058 71.93 48.2565 72.039 47.9516C72.1528 47.6418 72.2097 47.3151 72.2097 46.9714C72.2097 46.6181 72.1504 46.2913 72.0319 45.9912C71.9182 45.6863 71.7476 45.4419 71.5201 45.2579C71.2973 45.074 71.0295 44.982 70.7167 44.982C70.3992 44.982 70.1266 45.0764 69.8991 45.2652C69.6716 45.4491 69.4986 45.6935 69.3802 45.9985C69.2664 46.3034 69.2095 46.6302 69.2095 46.9787C69.2095 47.3272 69.2688 47.6563 69.3873 47.9661C69.5058 48.271 69.6787 48.5179 69.9062 48.7067C70.1337 48.8906 70.4063 48.9826 70.7238 48.9826Z" fill="#A22814"/>
<path d="M93.4999 42.5001C93.4999 43.7804 92.635 44.8182 91.568 44.8182C90.5011 44.8182 89.6362 43.7804 89.6362 42.5001C89.6362 41.2198 90.5011 40.1819 91.568 40.1819C92.635 40.1819 93.4999 41.2198 93.4999 42.5001Z" fill="#9E2513"/>
<path d="M102 47.909C102 49.6161 100.616 50.9999 98.9093 50.9999C97.2022 50.9999 95.8184 49.6161 95.8184 47.909C95.8184 46.202 97.2022 44.8181 98.9093 44.8181C100.616 44.8181 102 46.202 102 47.909Z" fill="#BB482C"/>
<defs>
<linearGradient id="paint0_linear" x1="43.9318" y1="0.974745" x2="43.9318" y2="62.4705" gradientUnits="userSpaceOnUse">
<stop stop-color="#F5582F"/>
<stop offset="1" stop-color="#6C0903"/>
</linearGradient>
<linearGradient id="paint1_linear" x1="44.2854" y1="0" x2="44.2854" y2="61.8182" gradientUnits="userSpaceOnUse">
<stop stop-color="#F5582F"/>
<stop offset="1" stop-color="#6C0903"/>
</linearGradient>
</defs>
</svg>
